<svg width="208" height="491" viewBox="0 0 208 491" fill="none" xmlns="http://www.w3.org/2000/svg">
<g opacity="0.6">
<path d="M370.175 415.056C289.853 415.184 217.13 396.393 164.486 365.935C111.829 335.469 79.3489 293.391 79.2747 246.959C79.2007 200.527 111.547 158.345 164.106 127.711C216.653 97.0853 289.316 78.0626 369.638 77.9345C449.959 77.8065 522.683 96.5975 575.327 127.056C627.984 157.522 660.465 199.601 660.539 246.033C660.612 292.464 628.266 334.646 575.707 365.279C523.16 395.905 450.497 414.928 370.175 415.056Z" stroke="#D6C26A"/>
<path d="M370.192 426.034C286.78 426.167 211.258 406.153 156.585 373.712C101.901 341.266 68.155 296.446 68.0761 246.976C67.9973 197.507 101.601 152.579 156.18 119.959C210.75 87.3448 286.208 67.0895 369.62 66.9566C453.031 66.8236 528.554 86.8383 583.227 119.278C637.91 151.725 671.657 196.545 671.735 246.014C671.814 295.484 638.211 340.411 583.631 373.032C529.062 405.646 453.603 425.901 370.192 426.034Z" stroke="#D6C26A"/>
<path d="M370.21 437.012C283.708 437.15 205.385 415.912 148.683 381.49C91.9733 347.063 56.9629 299.501 56.8791 246.995C56.7954 194.488 91.654 146.814 148.254 112.206C204.846 77.6041 283.101 56.1164 369.602 55.9786C456.104 55.8407 534.427 77.0788 591.129 111.501C647.839 145.928 682.849 193.49 682.933 245.997C683.017 298.504 648.158 346.177 591.558 380.784C534.966 415.387 456.711 436.874 370.21 437.012Z" stroke="#D6C26A"/>
<path d="M370.228 447.99C280.636 448.133 199.513 425.671 140.782 389.268C82.0445 352.86 45.7708 302.555 45.6823 247.012C45.5939 191.469 81.7069 141.049 140.328 104.454C198.942 67.8631 279.993 45.1432 369.585 45.0004C459.177 44.8576 540.299 67.3191 599.03 103.723C657.768 140.131 694.042 190.435 694.131 245.978C694.219 301.522 658.105 351.941 599.484 388.537C540.87 425.127 459.819 447.847 370.228 447.99Z" stroke="#D6C26A"/>
<path d="M370.245 458.968C277.563 459.116 193.64 435.431 132.881 397.046C72.1151 358.656 34.5777 305.61 34.4842 247.031C34.3908 188.451 71.7589 135.284 132.402 96.7015C193.039 58.1224 276.886 34.1703 369.568 34.0226C462.25 33.875 546.172 57.5597 606.932 95.9452C667.697 134.335 705.235 187.382 705.328 245.961C705.421 304.541 668.053 357.707 607.41 396.29C546.773 434.869 462.927 458.821 370.245 458.968Z" stroke="#D6C26A"/>
<path d="M370.263 469.946C274.49 470.099 187.768 445.191 124.979 404.823C62.1853 364.452 23.3852 308.663 23.287 247.048C23.1889 185.433 61.811 129.521 124.476 88.9497C187.135 48.3822 273.778 23.198 369.551 23.0454C465.323 22.8928 552.045 47.8007 614.833 88.1682C677.627 128.539 716.427 184.328 716.525 245.943C716.624 307.558 678.002 363.471 615.337 404.042C552.677 444.609 466.035 469.793 370.263 469.946Z" stroke="#D6C26A"/>
<path d="M370.28 480.924C271.417 481.082 181.894 454.95 117.077 412.6C52.255 370.248 12.1933 311.717 12.0902 247.066C11.9872 182.416 51.862 123.757 116.549 81.1975C181.231 38.6414 270.67 12.2253 369.533 12.0677C468.396 11.9101 557.919 38.0409 622.736 80.3908C687.558 122.743 727.62 181.275 727.723 245.926C727.826 310.576 687.951 369.235 623.265 411.794C558.582 454.35 469.143 480.767 370.28 480.924Z" stroke="#D6C26A"/>
<path d="M370.297 491.902C268.343 492.064 176.02 464.71 109.174 420.378C42.3231 376.043 1.00022 314.769 0.892345 247.083C0.784613 179.398 41.912 117.993 108.621 73.4455C175.326 28.9006 267.561 1.25174 369.514 1.0892C471.468 0.926705 563.792 28.2814 630.638 72.6135C697.489 116.948 738.812 178.222 738.92 245.907C739.028 313.593 697.9 374.998 631.191 419.546C564.486 464.091 472.25 491.74 370.297 491.902Z" stroke="#D6C26A"/>
</g>
</svg>
